<svg width="16" height="16" viewBox="0 0 16 16" fill="none" xmlns="http://www.w3.org/2000/svg">
<path d="M15.7812 13.6508L12.6656 10.6001C12.525 10.4624 12.3343 10.3859 12.1343 10.3859H11.625C12.4875 9.30573 13 7.94712 13 6.46917C13 2.9533 10.0906 0.104492 6.49998 0.104492C2.90937 0.104492 0 2.9533 0 6.46917C0 9.98504 2.90937 12.8338 6.49998 12.8338C8.00935 12.8338 9.39684 12.332 10.5 11.4875V11.9862C10.5 12.1821 10.5781 12.3687 10.7187 12.5064L13.8343 15.5572C14.1281 15.8448 14.6031 15.8448 14.8937 15.5572L15.7781 14.6912C16.0718 14.4036 16.0718 13.9385 15.7812 13.6508ZM6.49998 10.3859C4.29061 10.3859 2.49999 8.6356 2.49999 6.46917C2.49999 4.30579 4.28749 2.55244 6.49998 2.55244C8.70935 2.55244 10.5 4.30273 10.5 6.46917C10.5 8.63254 8.71247 10.3859 6.49998 10.3859Z" fill="#1565D8"/>
</svg>
