<svg width="164" height="48" viewBox="0 0 164 48" fill="none" xmlns="http://www.w3.org/2000/svg">
<g filter="url(#filter0_d)">
<rect x="26" y="1" width="129" height="46" rx="7" stroke="#1565D8" stroke-width="2"/>
<path fill-rule="evenodd" clip-rule="evenodd" d="M43 14C42.4492 14 42 14.4492 42 15C42 15.5508 42.4492 16 43 16H45.2188L47.8438 26.5C48.0664 27.3906 48.8633 28 49.7812 28H51C49.3555 28 48 29.3555 48 31C48 32.6445 49.3555 34 51 34C52.6445 34 54 32.6445 54 31C54 29.3555 52.6445 28 51 28H60C58.3555 28 57 29.3555 57 31C57 32.6445 58.3555 34 60 34C61.6445 34 63 32.6445 63 31C63 29.3555 61.6445 28 60 28H61.25C62.1523 28 62.918 27.4023 63.1562 26.5312L65.75 17H49L49.5 19H63.1562L61.25 26H49.7812L47.1562 15.5C46.9336 14.6094 46.1367 14 45.2188 14H43ZM51 30C51.5625 30 52 30.4375 52 31C52 31.5625 51.5625 32 51 32C50.4375 32 50 31.5625 50 31C50 30.4375 50.4375 30 51 30ZM61 31C61 30.4375 60.5625 30 60 30C59.4375 30 59 30.4375 59 31C59 31.5625 59.4375 32 60 32C60.5625 32 61 31.5625 61 31Z" fill="#1565D8"/>
<path d="M83.75 20.4297C82.8385 20.4297 82.1328 20.7734 81.6328 21.4609C81.1328 22.1432 80.8828 23.0964 80.8828 24.3203C80.8828 26.8672 81.8385 28.1406 83.75 28.1406C84.5521 28.1406 85.5234 27.9401 86.6641 27.5391V29.5703C85.7266 29.9609 84.6797 30.1562 83.5234 30.1562C81.862 30.1562 80.5911 29.6536 79.7109 28.6484C78.8307 27.638 78.3906 26.1901 78.3906 24.3047C78.3906 23.1172 78.6068 22.0781 79.0391 21.1875C79.4714 20.2917 80.0911 19.6068 80.8984 19.1328C81.7109 18.6536 82.6615 18.4141 83.75 18.4141C84.8594 18.4141 85.974 18.6823 87.0938 19.2188L86.3125 21.1875C85.8854 20.9844 85.4557 20.8073 85.0234 20.6562C84.5911 20.5052 84.1667 20.4297 83.75 20.4297ZM96.0938 30L95.2656 27.2812H91.1016L90.2734 30H87.6641L91.6953 18.5312H94.6562L98.7031 30H96.0938ZM94.6875 25.25C93.9219 22.7865 93.4896 21.3932 93.3906 21.0703C93.2969 20.7474 93.2292 20.4922 93.1875 20.3047C93.0156 20.9714 92.5234 22.6198 91.7109 25.25H94.6875ZM102.57 23.6484H103.352C104.117 23.6484 104.682 23.5208 105.047 23.2656C105.411 23.0104 105.594 22.6094 105.594 22.0625C105.594 21.5208 105.406 21.1354 105.031 20.9062C104.661 20.6771 104.086 20.5625 103.305 20.5625H102.57V23.6484ZM102.57 25.6172V30H100.148V18.5781H103.477C105.029 18.5781 106.177 18.862 106.922 19.4297C107.667 19.9922 108.039 20.849 108.039 22C108.039 22.6719 107.854 23.2708 107.484 23.7969C107.115 24.3177 106.591 24.7266 105.914 25.0234C107.633 27.5911 108.753 29.25 109.273 30H106.586L103.859 25.6172H102.57ZM115.117 30H112.695V20.5938H109.594V18.5781H118.219V20.5938H115.117V30Z" fill="#1565D8"/>
</g>
<defs>
<filter id="filter0_d" x="0" y="-15" width="1355" height="114" filterUnits="userSpaceOnUse" color-interpolation-filters="sRGB">
<feFlood flood-opacity="0" result="BackgroundImageFix"/>
<feColorMatrix in="SourceAlpha" type="matrix" values="0 0 0 0 0 0 0 0 0 0 0 0 0 0 0 0 0 0 127 0" result="hardAlpha"/>
<feOffset dy="10"/>
<feGaussianBlur stdDeviation="12.5"/>
<feColorMatrix type="matrix" values="0 0 0 0 0.0823529 0 0 0 0 0.145098 0 0 0 0 0.282353 0 0 0 0.1 0"/>
<feBlend mode="normal" in2="BackgroundImageFix" result="effect1_dropShadow"/>
<feBlend mode="normal" in="SourceGraphic" in2="effect1_dropShadow" result="shape"/>
</filter>
</defs>
</svg>
